<svg xmlns="http://www.w3.org/2000/svg" xmlns:xlink="http://www.w3.org/1999/xlink" width="240" zoomAndPan="magnify" viewBox="0 0 180 48" height="64" preserveAspectRatio="xMidYMid meet" version="1.0"><defs><g/><clipPath id="bb30a4528c"><path d="M 1.835938 0 L 29 0 L 29 26 L 1.835938 26 Z M 1.835938 0 " clip-rule="nonzero"/></clipPath><clipPath id="ab13140079"><path d="M -1.351562 17.113281 L 18.121094 -6.824219 L 34.078125 6.160156 L 14.601562 30.097656 Z M -1.351562 17.113281 " clip-rule="nonzero"/></clipPath><clipPath id="4cbf38cb66"><path d="M -1.351562 17.113281 L 18.121094 -6.824219 L 34.078125 6.160156 L 14.601562 30.097656 Z M -1.351562 17.113281 " clip-rule="nonzero"/></clipPath><clipPath id="b2599bea92"><path d="M 1.835938 0 L 28 0 L 28 25 L 1.835938 25 Z M 1.835938 0 " clip-rule="nonzero"/></clipPath><clipPath id="d086694377"><path d="M -1.351562 17.113281 L 18.121094 -6.824219 L 34.078125 6.160156 L 14.601562 30.097656 Z M -1.351562 17.113281 " clip-rule="nonzero"/></clipPath><clipPath id="5fd980385d"><path d="M -1.351562 17.113281 L 18.121094 -6.824219 L 34.078125 6.160156 L 14.601562 30.097656 Z M -1.351562 17.113281 " clip-rule="nonzero"/></clipPath><clipPath id="61314ba339"><path d="M 4 17 L 10 17 L 10 21 L 4 21 Z M 4 17 " clip-rule="nonzero"/></clipPath><clipPath id="e90e84c822"><path d="M -1.351562 17.113281 L 18.121094 -6.824219 L 34.078125 6.160156 L 14.601562 30.097656 Z M -1.351562 17.113281 " clip-rule="nonzero"/></clipPath><clipPath id="8782f057b6"><path d="M -1.351562 17.113281 L 18.121094 -6.824219 L 34.078125 6.160156 L 14.601562 30.097656 Z M -1.351562 17.113281 " clip-rule="nonzero"/></clipPath><clipPath id="158215d2d2"><path d="M 12 5 L 18 5 L 18 11 L 12 11 Z M 12 5 " clip-rule="nonzero"/></clipPath><clipPath id="e34ca16ff2"><path d="M -1.351562 17.113281 L 18.121094 -6.824219 L 34.078125 6.160156 L 14.601562 30.097656 Z M -1.351562 17.113281 " clip-rule="nonzero"/></clipPath><clipPath id="c64988209e"><path d="M -1.351562 17.113281 L 18.121094 -6.824219 L 34.078125 6.160156 L 14.601562 30.097656 Z M -1.351562 17.113281 " clip-rule="nonzero"/></clipPath><clipPath id="b4cb0a4d21"><path d="M 11 4 L 28 4 L 28 17 L 11 17 Z M 11 4 " clip-rule="nonzero"/></clipPath><clipPath id="6871ed064a"><path d="M -1.351562 17.113281 L 18.121094 -6.824219 L 34.078125 6.160156 L 14.601562 30.097656 Z M -1.351562 17.113281 " clip-rule="nonzero"/></clipPath><clipPath id="aea7846c35"><path d="M -1.351562 17.113281 L 18.121094 -6.824219 L 34.078125 6.160156 L 14.601562 30.097656 Z M -1.351562 17.113281 " clip-rule="nonzero"/></clipPath><clipPath id="039a46d369"><path d="M 8 9 L 15 9 L 15 12 L 8 12 Z M 8 9 " clip-rule="nonzero"/></clipPath><clipPath id="d1785b20eb"><path d="M -1.351562 17.113281 L 18.121094 -6.824219 L 34.078125 6.160156 L 14.601562 30.097656 Z M -1.351562 17.113281 " clip-rule="nonzero"/></clipPath><clipPath id="87055b422a"><path d="M -1.351562 17.113281 L 18.121094 -6.824219 L 34.078125 6.160156 L 14.601562 30.097656 Z M -1.351562 17.113281 " clip-rule="nonzero"/></clipPath><clipPath id="23e77f076b"><path d="M 22 10 L 24 10 L 24 13 L 22 13 Z M 22 10 " clip-rule="nonzero"/></clipPath><clipPath id="771331b538"><path d="M -1.351562 17.113281 L 18.121094 -6.824219 L 34.078125 6.160156 L 14.601562 30.097656 Z M -1.351562 17.113281 " clip-rule="nonzero"/></clipPath><clipPath id="a07a495fdd"><path d="M -1.351562 17.113281 L 18.121094 -6.824219 L 34.078125 6.160156 L 14.601562 30.097656 Z M -1.351562 17.113281 " clip-rule="nonzero"/></clipPath><clipPath id="f63cd0d54f"><path d="M 15 6 L 25 6 L 25 13 L 15 13 Z M 15 6 " clip-rule="nonzero"/></clipPath><clipPath id="d1b0dbb8aa"><path d="M -1.351562 17.113281 L 18.121094 -6.824219 L 34.078125 6.160156 L 14.601562 30.097656 Z M -1.351562 17.113281 " clip-rule="nonzero"/></clipPath><clipPath id="fc26dc6c90"><path d="M -1.351562 17.113281 L 18.121094 -6.824219 L 34.078125 6.160156 L 14.601562 30.097656 Z M -1.351562 17.113281 " clip-rule="nonzero"/></clipPath><clipPath id="0e4e57f538"><path d="M 11 12 L 19 12 L 19 17 L 11 17 Z M 11 12 " clip-rule="nonzero"/></clipPath><clipPath id="bfed810633"><path d="M -1.351562 17.113281 L 18.121094 -6.824219 L 34.078125 6.160156 L 14.601562 30.097656 Z M -1.351562 17.113281 " clip-rule="nonzero"/></clipPath><clipPath id="5a3db3b75c"><path d="M -1.351562 17.113281 L 18.121094 -6.824219 L 34.078125 6.160156 L 14.601562 30.097656 Z M -1.351562 17.113281 " clip-rule="nonzero"/></clipPath><clipPath id="c023d15748"><path d="M 7 18 L 10 18 L 10 21 L 7 21 Z M 7 18 " clip-rule="nonzero"/></clipPath><clipPath id="714e13ad0c"><path d="M -1.351562 17.113281 L 18.121094 -6.824219 L 34.078125 6.160156 L 14.601562 30.097656 Z M -1.351562 17.113281 " clip-rule="nonzero"/></clipPath><clipPath id="10d9eb09e1"><path d="M -1.351562 17.113281 L 18.121094 -6.824219 L 34.078125 6.160156 L 14.601562 30.097656 Z M -1.351562 17.113281 " clip-rule="nonzero"/></clipPath><clipPath id="e24d435d44"><path d="M 64 37 L 133 37 L 133 47.019531 L 64 47.019531 Z M 64 37 " clip-rule="nonzero"/></clipPath><clipPath id="b9f8f3461f"><rect x="0" width="69" y="0" height="11"/></clipPath></defs><g fill="#ffffff" fill-opacity="1"><g transform="translate(10.331514, 36.650664)"><g><path d="M 12.734375 0.359375 C 10.554688 0.359375 8.585938 -0.109375 6.828125 -1.046875 C 5.078125 -1.992188 3.695312 -3.304688 2.6875 -4.984375 C 1.6875 -6.660156 1.1875 -8.550781 1.1875 -10.65625 C 1.1875 -12.769531 1.6875 -14.664062 2.6875 -16.34375 C 3.695312 -18.019531 5.078125 -19.328125 6.828125 -20.265625 C 8.585938 -21.210938 10.566406 -21.6875 12.765625 -21.6875 C 14.609375 -21.6875 16.273438 -21.363281 17.765625 -20.71875 C 19.265625 -20.070312 20.523438 -19.140625 21.546875 -17.921875 L 18.375 -14.984375 C 16.925781 -16.648438 15.140625 -17.484375 13.015625 -17.484375 C 11.691406 -17.484375 10.507812 -17.191406 9.46875 -16.609375 C 8.4375 -16.035156 7.628906 -15.226562 7.046875 -14.1875 C 6.472656 -13.15625 6.1875 -11.976562 6.1875 -10.65625 C 6.1875 -9.34375 6.472656 -8.164062 7.046875 -7.125 C 7.628906 -6.09375 8.4375 -5.285156 9.46875 -4.703125 C 10.507812 -4.128906 11.691406 -3.84375 13.015625 -3.84375 C 15.140625 -3.84375 16.925781 -4.6875 18.375 -6.375 L 21.546875 -3.4375 C 20.523438 -2.195312 19.265625 -1.253906 17.765625 -0.609375 C 16.265625 0.0351562 14.585938 0.359375 12.734375 0.359375 Z M 12.734375 0.359375 "/></g></g></g><g fill="#ffffff" fill-opacity="1"><g transform="translate(30.34746, 36.650664)"><g><path d="M 10 0.25 C 8.269531 0.25 6.71875 -0.109375 5.34375 -0.828125 C 3.976562 -1.554688 2.90625 -2.5625 2.125 -3.84375 C 1.351562 -5.125 0.96875 -6.578125 0.96875 -8.203125 C 0.96875 -9.828125 1.351562 -11.273438 2.125 -12.546875 C 2.90625 -13.828125 3.976562 -14.828125 5.34375 -15.546875 C 6.71875 -16.273438 8.269531 -16.640625 10 -16.640625 C 11.71875 -16.640625 13.257812 -16.273438 14.625 -15.546875 C 15.988281 -14.828125 17.054688 -13.828125 17.828125 -12.546875 C 18.597656 -11.273438 18.984375 -9.828125 18.984375 -8.203125 C 18.984375 -6.578125 18.597656 -5.125 17.828125 -3.84375 C 17.054688 -2.5625 15.988281 -1.554688 14.625 -0.828125 C 13.257812 -0.109375 11.71875 0.25 10 0.25 Z M 10 -3.65625 C 11.21875 -3.65625 12.21875 -4.066406 13 -4.890625 C 13.78125 -5.710938 14.171875 -6.816406 14.171875 -8.203125 C 14.171875 -9.578125 13.78125 -10.675781 13 -11.5 C 12.21875 -12.320312 11.21875 -12.734375 10 -12.734375 C 8.78125 -12.734375 7.769531 -12.320312 6.96875 -11.5 C 6.175781 -10.675781 5.78125 -9.578125 5.78125 -8.203125 C 5.78125 -6.816406 6.175781 -5.710938 6.96875 -4.890625 C 7.769531 -4.066406 8.78125 -3.65625 10 -3.65625 Z M 10 -3.65625 "/></g></g></g><g fill="#ffffff" fill-opacity="1"><g transform="translate(47.986996, 36.650664)"><g><path d="M 23.1875 -16.640625 C 25.238281 -16.640625 26.867188 -16.035156 28.078125 -14.828125 C 29.285156 -13.617188 29.890625 -11.804688 29.890625 -9.390625 L 29.890625 0 L 25.140625 0 L 25.140625 -8.65625 C 25.140625 -9.957031 24.867188 -10.925781 24.328125 -11.5625 C 23.785156 -12.195312 23.019531 -12.515625 22.03125 -12.515625 C 20.914062 -12.515625 20.03125 -12.15625 19.375 -11.4375 C 18.726562 -10.71875 18.40625 -9.644531 18.40625 -8.21875 L 18.40625 0 L 13.65625 0 L 13.65625 -8.65625 C 13.65625 -11.226562 12.617188 -12.515625 10.546875 -12.515625 C 9.441406 -12.515625 8.566406 -12.15625 7.921875 -11.4375 C 7.273438 -10.71875 6.953125 -9.644531 6.953125 -8.21875 L 6.953125 0 L 2.1875 0 L 2.1875 -16.390625 L 6.734375 -16.390625 L 6.734375 -14.5 C 7.335938 -15.1875 8.082031 -15.710938 8.96875 -16.078125 C 9.851562 -16.453125 10.820312 -16.640625 11.875 -16.640625 C 13.039062 -16.640625 14.085938 -16.410156 15.015625 -15.953125 C 15.953125 -15.492188 16.707031 -14.828125 17.28125 -13.953125 C 17.945312 -14.804688 18.789062 -15.46875 19.8125 -15.9375 C 20.84375 -16.40625 21.96875 -16.640625 23.1875 -16.640625 Z M 23.1875 -16.640625 "/></g></g></g><g fill="#ffffff" fill-opacity="1"><g transform="translate(77.630496, 36.650664)"><g><path d="M 23.1875 -16.640625 C 25.238281 -16.640625 26.867188 -16.035156 28.078125 -14.828125 C 29.285156 -13.617188 29.890625 -11.804688 29.890625 -9.390625 L 29.890625 0 L 25.140625 0 L 25.140625 -8.65625 C 25.140625 -9.957031 24.867188 -10.925781 24.328125 -11.5625 C 23.785156 -12.195312 23.019531 -12.515625 22.03125 -12.515625 C 20.914062 -12.515625 20.03125 -12.15625 19.375 -11.4375 C 18.726562 -10.71875 18.40625 -9.644531 18.40625 -8.21875 L 18.40625 0 L 13.65625 0 L 13.65625 -8.65625 C 13.65625 -11.226562 12.617188 -12.515625 10.546875 -12.515625 C 9.441406 -12.515625 8.566406 -12.15625 7.921875 -11.4375 C 7.273438 -10.71875 6.953125 -9.644531 6.953125 -8.21875 L 6.953125 0 L 2.1875 0 L 2.1875 -16.390625 L 6.734375 -16.390625 L 6.734375 -14.5 C 7.335938 -15.1875 8.082031 -15.710938 8.96875 -16.078125 C 9.851562 -16.453125 10.820312 -16.640625 11.875 -16.640625 C 13.039062 -16.640625 14.085938 -16.410156 15.015625 -15.953125 C 15.953125 -15.492188 16.707031 -14.828125 17.28125 -13.953125 C 17.945312 -14.804688 18.789062 -15.46875 19.8125 -15.9375 C 20.84375 -16.40625 21.96875 -16.640625 23.1875 -16.640625 Z M 23.1875 -16.640625 "/></g></g></g><g fill="#ffffff" fill-opacity="1"><g transform="translate(107.273996, 36.650664)"><g><path d="M 8.8125 -16.640625 C 11.34375 -16.640625 13.289062 -16.035156 14.65625 -14.828125 C 16.019531 -13.617188 16.703125 -11.796875 16.703125 -9.359375 L 16.703125 0 L 12.25 0 L 12.25 -2.046875 C 11.351562 -0.515625 9.6875 0.25 7.25 0.25 C 5.988281 0.25 4.894531 0.0351562 3.96875 -0.390625 C 3.050781 -0.816406 2.347656 -1.40625 1.859375 -2.15625 C 1.367188 -2.914062 1.125 -3.769531 1.125 -4.71875 C 1.125 -6.238281 1.695312 -7.4375 2.84375 -8.3125 C 3.988281 -9.1875 5.765625 -9.625 8.171875 -9.625 L 11.9375 -9.625 C 11.9375 -10.664062 11.617188 -11.460938 10.984375 -12.015625 C 10.359375 -12.578125 9.421875 -12.859375 8.171875 -12.859375 C 7.296875 -12.859375 6.4375 -12.71875 5.59375 -12.4375 C 4.75 -12.164062 4.03125 -11.796875 3.4375 -11.328125 L 1.734375 -14.65625 C 2.628906 -15.28125 3.703125 -15.765625 4.953125 -16.109375 C 6.203125 -16.460938 7.488281 -16.640625 8.8125 -16.640625 Z M 8.4375 -2.953125 C 9.25 -2.953125 9.96875 -3.140625 10.59375 -3.515625 C 11.226562 -3.890625 11.675781 -4.441406 11.9375 -5.171875 L 11.9375 -6.859375 L 8.6875 -6.859375 C 6.738281 -6.859375 5.765625 -6.21875 5.765625 -4.9375 C 5.765625 -4.320312 6 -3.835938 6.46875 -3.484375 C 6.945312 -3.128906 7.601562 -2.953125 8.4375 -2.953125 Z M 8.4375 -2.953125 "/></g></g></g><g fill="#ffffff" fill-opacity="1"><g transform="translate(123.755786, 36.650664)"><g><path d="M 12.15625 -16.640625 C 14.1875 -16.640625 15.828125 -16.03125 17.078125 -14.8125 C 18.328125 -13.59375 18.953125 -11.785156 18.953125 -9.390625 L 18.953125 0 L 14.203125 0 L 14.203125 -8.65625 C 14.203125 -9.957031 13.914062 -10.925781 13.34375 -11.5625 C 12.769531 -12.195312 11.945312 -12.515625 10.875 -12.515625 C 9.675781 -12.515625 8.722656 -12.144531 8.015625 -11.40625 C 7.304688 -10.664062 6.953125 -9.566406 6.953125 -8.109375 L 6.953125 0 L 2.1875 0 L 2.1875 -16.390625 L 6.734375 -16.390625 L 6.734375 -14.46875 C 7.359375 -15.164062 8.140625 -15.703125 9.078125 -16.078125 C 10.015625 -16.453125 11.039062 -16.640625 12.15625 -16.640625 Z M 12.15625 -16.640625 "/></g></g></g><g fill="#ffffff" fill-opacity="1"><g transform="translate(142.492127, 36.650664)"><g><path d="M 18.890625 -22.609375 L 18.890625 0 L 14.34375 0 L 14.34375 -1.890625 C 13.164062 -0.460938 11.460938 0.25 9.234375 0.25 C 7.691406 0.25 6.296875 -0.09375 5.046875 -0.78125 C 3.796875 -1.476562 2.8125 -2.46875 2.09375 -3.75 C 1.382812 -5.03125 1.03125 -6.515625 1.03125 -8.203125 C 1.03125 -9.878906 1.382812 -11.359375 2.09375 -12.640625 C 2.8125 -13.921875 3.796875 -14.90625 5.046875 -15.59375 C 6.296875 -16.289062 7.691406 -16.640625 9.234375 -16.640625 C 11.328125 -16.640625 12.960938 -15.976562 14.140625 -14.65625 L 14.140625 -22.609375 Z M 10.046875 -3.65625 C 11.253906 -3.65625 12.253906 -4.066406 13.046875 -4.890625 C 13.835938 -5.710938 14.234375 -6.816406 14.234375 -8.203125 C 14.234375 -9.578125 13.835938 -10.675781 13.046875 -11.5 C 12.253906 -12.320312 11.253906 -12.734375 10.046875 -12.734375 C 8.828125 -12.734375 7.820312 -12.320312 7.03125 -11.5 C 6.238281 -10.675781 5.84375 -9.578125 5.84375 -8.203125 C 5.84375 -6.816406 6.238281 -5.710938 7.03125 -4.890625 C 7.820312 -4.066406 8.828125 -3.65625 10.046875 -3.65625 Z M 10.046875 -3.65625 "/></g></g></g><g fill="#ffffff" fill-opacity="1"><g transform="translate(161.258938, 36.650664)"><g><path d="M 8.8125 -16.640625 C 11.34375 -16.640625 13.289062 -16.035156 14.65625 -14.828125 C 16.019531 -13.617188 16.703125 -11.796875 16.703125 -9.359375 L 16.703125 0 L 12.25 0 L 12.25 -2.046875 C 11.351562 -0.515625 9.6875 0.25 7.25 0.25 C 5.988281 0.25 4.894531 0.0351562 3.96875 -0.390625 C 3.050781 -0.816406 2.347656 -1.40625 1.859375 -2.15625 C 1.367188 -2.914062 1.125 -3.769531 1.125 -4.71875 C 1.125 -6.238281 1.695312 -7.4375 2.84375 -8.3125 C 3.988281 -9.1875 5.765625 -9.625 8.171875 -9.625 L 11.9375 -9.625 C 11.9375 -10.664062 11.617188 -11.460938 10.984375 -12.015625 C 10.359375 -12.578125 9.421875 -12.859375 8.171875 -12.859375 C 7.296875 -12.859375 6.4375 -12.71875 5.59375 -12.4375 C 4.75 -12.164062 4.03125 -11.796875 3.4375 -11.328125 L 1.734375 -14.65625 C 2.628906 -15.28125 3.703125 -15.765625 4.953125 -16.109375 C 6.203125 -16.460938 7.488281 -16.640625 8.8125 -16.640625 Z M 8.4375 -2.953125 C 9.25 -2.953125 9.96875 -3.140625 10.59375 -3.515625 C 11.226562 -3.890625 11.675781 -4.441406 11.9375 -5.171875 L 11.9375 -6.859375 L 8.6875 -6.859375 C 6.738281 -6.859375 5.765625 -6.21875 5.765625 -4.9375 C 5.765625 -4.320312 6 -3.835938 6.46875 -3.484375 C 6.945312 -3.128906 7.601562 -2.953125 8.4375 -2.953125 Z M 8.4375 -2.953125 "/></g></g></g><g clip-path="url(#bb30a4528c)"><g clip-path="url(#ab13140079)"><g clip-path="url(#4cbf38cb66)"><path fill="#1b2123" d="M 25.484375 15.875 C 22.117188 16.914062 18.589844 18.75 15.542969 21.042969 C 14.027344 22.1875 12.671875 23.410156 11.507812 24.683594 L 10.914062 25.332031 L 9.164062 20.191406 C 8.128906 20.753906 5.878906 21.695312 3.664062 20.769531 C 2.585938 20.320312 1.902344 19.691406 1.566406 18.847656 C 1.128906 17.738281 0.691406 14.609375 3.828125 12.453125 C 6.132812 10.71875 9.542969 10.582031 10.25 10.570312 C 10.496094 10.449219 10.71875 10.3125 10.929688 10.152344 C 11.78125 9.507812 12.339844 8.589844 12.984375 7.527344 C 13.90625 6.011719 15.054688 4.125 17.539062 2.253906 C 17.84375 2.023438 18.167969 1.796875 18.5 1.574219 C 21.410156 -0.347656 23.648438 -0.929688 25.34375 -0.210938 C 26.09375 0.109375 27.972656 1.65625 28.453125 4.304688 C 28.738281 5.710938 28.167969 7.121094 27.257812 8.503906 C 26.824219 9.15625 26.019531 10.152344 24.625 11.203125 C 24.242188 11.492188 23.902344 11.71875 23.644531 11.882812 L 26.140625 15.671875 Z M 25.484375 15.875 " fill-opacity="1" fill-rule="nonzero"/></g></g></g><g clip-path="url(#b2599bea92)"><g clip-path="url(#d086694377)"><g clip-path="url(#5fd980385d)"><path fill="#ffffff" d="M 27.6875 4.402344 C 27.996094 5.925781 27.472656 7.296875 26.671875 8.429688 C 25.234375 10.453125 22.910156 11.707031 22.910156 11.707031 L 25.324219 15.375 C 24.019531 15.777344 22.699219 16.292969 21.390625 16.910156 C 17.570312 18.703125 13.863281 21.324219 11.121094 24.324219 L 9.445312 19.402344 C 9.445312 19.402344 6.582031 21.421875 3.859375 20.285156 C 2.128906 19.5625 1.257812 17.597656 2.425781 14.8125 C 4.105469 11.132812 10.378906 11.09375 10.378906 11.09375 C 13.644531 9.542969 13.167969 5.726562 18.789062 2.015625 C 24.398438 -1.6875 26.824219 0.140625 27.6875 4.402344 Z M 27.6875 4.402344 " fill-opacity="1" fill-rule="nonzero"/></g></g></g><g clip-path="url(#61314ba339)"><g clip-path="url(#e90e84c822)"><g clip-path="url(#8782f057b6)"><path fill="#ffffff" d="M 9.117188 19.457031 C 9.117188 19.457031 6.902344 20.320312 5.660156 20.074219 C 4.394531 19.824219 3.945312 19.191406 4.191406 19.195312 C 4.441406 19.195312 5.625 19.691406 6.230469 19.175781 C 6.832031 18.65625 5.441406 18.128906 6.140625 17.980469 C 6.835938 17.835938 7.796875 18.121094 8.390625 18.492188 C 8.980469 18.867188 9.117188 19.457031 9.117188 19.457031 Z M 9.117188 19.457031 " fill-opacity="1" fill-rule="nonzero"/></g></g></g><g clip-path="url(#158215d2d2)"><g clip-path="url(#e34ca16ff2)"><g clip-path="url(#c64988209e)"><path fill="#ffffff" d="M 12.230469 10.3125 C 12.230469 10.3125 13.683594 9.496094 14.773438 7.75 C 15.867188 6.003906 16.828125 4.949219 17.175781 5.414062 C 17.523438 5.875 17.449219 6.988281 15.867188 8.507812 C 14.28125 10.03125 12.230469 10.3125 12.230469 10.3125 Z M 12.230469 10.3125 " fill-opacity="1" fill-rule="nonzero"/></g></g></g><g clip-path="url(#b4cb0a4d21)"><g clip-path="url(#6871ed064a)"><g clip-path="url(#aea7846c35)"><path fill="#ffffff" d="M 27.109375 6.621094 C 27.097656 6.660156 26.855469 7.734375 26.671875 8.429688 C 25.234375 10.453125 22.910156 11.707031 22.910156 11.707031 L 25.324219 15.375 C 24.019531 15.777344 22.699219 16.292969 21.390625 16.910156 C 21.628906 16.511719 21.730469 15.992188 21.492188 15.324219 C 20.78125 13.339844 19.898438 12.402344 19.898438 12.402344 C 19.898438 12.402344 18.570312 14.824219 16.945312 15.691406 C 15.335938 16.554688 12.046875 15.878906 11.996094 15.867188 C 12.027344 15.855469 13.65625 15.148438 14.445312 14.46875 C 15.242188 13.777344 15.242188 13.777344 15.242188 13.777344 C 14.09375 13.210938 13.039062 12.640625 13.765625 12.050781 C 13.765625 12.050781 17.46875 12.898438 20.800781 9.414062 C 24.132812 5.925781 23.207031 4.230469 24.601562 4.6875 C 26 5.144531 24.886719 8.558594 25.742188 8.179688 C 26.582031 7.808594 27.089844 6.660156 27.109375 6.621094 Z M 27.109375 6.621094 " fill-opacity="1" fill-rule="nonzero"/></g></g></g><g clip-path="url(#039a46d369)"><g clip-path="url(#d1785b20eb)"><g clip-path="url(#87055b422a)"><path fill="#1b2123" d="M 8.578125 11.191406 C 8.578125 11.191406 10.671875 11.308594 12.363281 10.84375 C 14.058594 10.378906 14.945312 9.082031 14.945312 9.082031 C 14.945312 9.082031 13.398438 9.976562 12.230469 10.3125 C 11.0625 10.652344 10.808594 10.664062 10.808594 10.664062 Z M 8.578125 11.191406 " fill-opacity="1" fill-rule="nonzero"/></g></g></g><g clip-path="url(#23e77f076b)"><g clip-path="url(#771331b538)"><g clip-path="url(#a07a495fdd)"><path fill="#1b2123" d="M 22.191406 10.148438 C 22.199219 10.488281 22.90625 11.679688 23.472656 12.558594 L 23.644531 11.882812 C 23.21875 11.265625 22.867188 10.710938 22.582031 10.207031 Z M 22.191406 10.148438 " fill-opacity="1" fill-rule="nonzero"/></g></g></g><g clip-path="url(#f63cd0d54f)"><g clip-path="url(#d1b0dbb8aa)"><g clip-path="url(#fc26dc6c90)"><path fill="#1b2123" d="M 24.617188 6.402344 C 24.617188 6.402344 24.496094 8.574219 21.28125 10.699219 C 18.070312 12.824219 15.492188 12.976562 15.492188 12.976562 C 15.492188 12.976562 18.125 13.308594 21.207031 11.558594 C 23.117188 10.417969 22.609375 10.714844 23.597656 9.605469 C 24.582031 8.492188 24.617188 6.402344 24.617188 6.402344 Z M 24.617188 6.402344 " fill-opacity="1" fill-rule="nonzero"/></g></g></g><g clip-path="url(#0e4e57f538)"><g clip-path="url(#bfed810633)"><g clip-path="url(#5a3db3b75c)"><path fill="#1b2123" d="M 17.121094 12.800781 C 16.347656 14.480469 14.082031 16.058594 11.777344 16.308594 C 11.777344 16.308594 12.640625 16.683594 14.707031 15.867188 C 16.769531 15.046875 18.140625 12.542969 18.140625 12.542969 Z M 17.121094 12.800781 " fill-opacity="1" fill-rule="nonzero"/></g></g></g><g clip-path="url(#c023d15748)"><g clip-path="url(#714e13ad0c)"><g clip-path="url(#10d9eb09e1)"><path fill="#1b2123" d="M 9.609375 20.0625 C 9.597656 19.90625 9.542969 19.40625 9.257812 19.027344 C 8.96875 18.648438 7.175781 18.320312 7.175781 18.320312 C 7.175781 18.320312 8.328125 18.859375 8.683594 19.1875 C 9.039062 19.515625 9.164062 20.191406 9.164062 20.191406 Z M 9.609375 20.0625 " fill-opacity="1" fill-rule="nonzero"/></g></g></g><g clip-path="url(#e24d435d44)"><g transform="matrix(1, 0, 0, 1, 64, 37)"><g clip-path="url(#b9f8f3461f)"><g fill="#ffffff" fill-opacity="1"><g transform="translate(0.921989, 8.450317)"><g><path d="M 2.34375 0.0625 C 1.988281 0.0625 1.664062 0 1.375 -0.125 C 1.09375 -0.257812 0.867188 -0.441406 0.703125 -0.671875 C 0.535156 -0.898438 0.453125 -1.164062 0.453125 -1.46875 L 1.21875 -1.46875 C 1.238281 -1.207031 1.34375 -0.988281 1.53125 -0.8125 C 1.71875 -0.632812 1.988281 -0.546875 2.34375 -0.546875 C 2.6875 -0.546875 2.957031 -0.628906 3.15625 -0.796875 C 3.351562 -0.972656 3.453125 -1.195312 3.453125 -1.46875 C 3.453125 -1.675781 3.394531 -1.84375 3.28125 -1.96875 C 3.164062 -2.101562 3.019531 -2.207031 2.84375 -2.28125 C 2.675781 -2.351562 2.441406 -2.425781 2.140625 -2.5 C 1.785156 -2.59375 1.5 -2.6875 1.28125 -2.78125 C 1.0625 -2.875 0.875 -3.019531 0.71875 -3.21875 C 0.5625 -3.425781 0.484375 -3.703125 0.484375 -4.046875 C 0.484375 -4.347656 0.554688 -4.613281 0.703125 -4.84375 C 0.859375 -5.070312 1.070312 -5.25 1.34375 -5.375 C 1.625 -5.507812 1.941406 -5.578125 2.296875 -5.578125 C 2.816406 -5.578125 3.238281 -5.445312 3.5625 -5.1875 C 3.894531 -4.925781 4.082031 -4.582031 4.125 -4.15625 L 3.34375 -4.15625 C 3.3125 -4.363281 3.195312 -4.546875 3 -4.703125 C 2.8125 -4.867188 2.554688 -4.953125 2.234375 -4.953125 C 1.929688 -4.953125 1.6875 -4.875 1.5 -4.71875 C 1.3125 -4.5625 1.21875 -4.347656 1.21875 -4.078125 C 1.21875 -3.867188 1.269531 -3.703125 1.375 -3.578125 C 1.488281 -3.453125 1.628906 -3.359375 1.796875 -3.296875 C 1.960938 -3.234375 2.195312 -3.15625 2.5 -3.0625 C 2.863281 -2.96875 3.15625 -2.867188 3.375 -2.765625 C 3.59375 -2.671875 3.78125 -2.519531 3.9375 -2.3125 C 4.101562 -2.113281 4.1875 -1.84375 4.1875 -1.5 C 4.1875 -1.226562 4.113281 -0.972656 3.96875 -0.734375 C 3.820312 -0.503906 3.609375 -0.3125 3.328125 -0.15625 C 3.054688 -0.0078125 2.726562 0.0625 2.34375 0.0625 Z M 2.34375 0.0625 "/></g></g></g><g fill="#ffffff" fill-opacity="1"><g transform="translate(11.866033, 8.450317)"><g><path d="M 4.453125 -5.5 L 2.671875 -2.078125 L 2.671875 0 L 1.953125 0 L 1.953125 -2.078125 L 0.15625 -5.5 L 0.953125 -5.5 L 2.296875 -2.71875 L 3.65625 -5.5 Z M 4.453125 -5.5 "/></g></g></g><g fill="#ffffff" fill-opacity="1"><g transform="translate(22.786417, 8.450317)"><g><path d="M 2.34375 0.0625 C 1.988281 0.0625 1.664062 0 1.375 -0.125 C 1.09375 -0.257812 0.867188 -0.441406 0.703125 -0.671875 C 0.535156 -0.898438 0.453125 -1.164062 0.453125 -1.46875 L 1.21875 -1.46875 C 1.238281 -1.207031 1.34375 -0.988281 1.53125 -0.8125 C 1.71875 -0.632812 1.988281 -0.546875 2.34375 -0.546875 C 2.6875 -0.546875 2.957031 -0.628906 3.15625 -0.796875 C 3.351562 -0.972656 3.453125 -1.195312 3.453125 -1.46875 C 3.453125 -1.675781 3.394531 -1.84375 3.28125 -1.96875 C 3.164062 -2.101562 3.019531 -2.207031 2.84375 -2.28125 C 2.675781 -2.351562 2.441406 -2.425781 2.140625 -2.5 C 1.785156 -2.59375 1.5 -2.6875 1.28125 -2.78125 C 1.0625 -2.875 0.875 -3.019531 0.71875 -3.21875 C 0.5625 -3.425781 0.484375 -3.703125 0.484375 -4.046875 C 0.484375 -4.347656 0.554688 -4.613281 0.703125 -4.84375 C 0.859375 -5.070312 1.070312 -5.25 1.34375 -5.375 C 1.625 -5.507812 1.941406 -5.578125 2.296875 -5.578125 C 2.816406 -5.578125 3.238281 -5.445312 3.5625 -5.1875 C 3.894531 -4.925781 4.082031 -4.582031 4.125 -4.15625 L 3.34375 -4.15625 C 3.3125 -4.363281 3.195312 -4.546875 3 -4.703125 C 2.8125 -4.867188 2.554688 -4.953125 2.234375 -4.953125 C 1.929688 -4.953125 1.6875 -4.875 1.5 -4.71875 C 1.3125 -4.5625 1.21875 -4.347656 1.21875 -4.078125 C 1.21875 -3.867188 1.269531 -3.703125 1.375 -3.578125 C 1.488281 -3.453125 1.628906 -3.359375 1.796875 -3.296875 C 1.960938 -3.234375 2.195312 -3.15625 2.5 -3.0625 C 2.863281 -2.96875 3.15625 -2.867188 3.375 -2.765625 C 3.59375 -2.671875 3.78125 -2.519531 3.9375 -2.3125 C 4.101562 -2.113281 4.1875 -1.84375 4.1875 -1.5 C 4.1875 -1.226562 4.113281 -0.972656 3.96875 -0.734375 C 3.820312 -0.503906 3.609375 -0.3125 3.328125 -0.15625 C 3.054688 -0.0078125 2.726562 0.0625 2.34375 0.0625 Z M 2.34375 0.0625 "/></g></g></g><g fill="#ffffff" fill-opacity="1"><g transform="translate(33.730461, 8.450317)"><g><path d="M 4 -5.5 L 4 -4.921875 L 2.5 -4.921875 L 2.5 0 L 1.78125 0 L 1.78125 -4.921875 L 0.265625 -4.921875 L 0.265625 -5.5 Z M 4 -5.5 "/></g></g></g><g fill="#ffffff" fill-opacity="1"><g transform="translate(44.311702, 8.450317)"><g><path d="M 1.328125 -4.921875 L 1.328125 -3.078125 L 3.328125 -3.078125 L 3.328125 -2.484375 L 1.328125 -2.484375 L 1.328125 -0.59375 L 3.5625 -0.59375 L 3.5625 0 L 0.609375 0 L 0.609375 -5.5 L 3.5625 -5.5 L 3.5625 -4.921875 Z M 1.328125 -4.921875 "/></g></g></g><g fill="#ffffff" fill-opacity="1"><g transform="translate(54.672101, 8.450317)"><g><path d="M 6.1875 -5.453125 L 6.1875 0 L 5.46875 0 L 5.46875 -4.078125 L 3.65625 0 L 3.140625 0 L 1.328125 -4.078125 L 1.328125 0 L 0.609375 0 L 0.609375 -5.453125 L 1.375 -5.453125 L 3.40625 -0.953125 L 5.421875 -5.453125 Z M 6.1875 -5.453125 "/></g></g></g></g></g></g></svg>