<svg xmlns="http://www.w3.org/2000/svg" xmlns:xlink="http://www.w3.org/1999/xlink" width="240" zoomAndPan="magnify" viewBox="0 0 180 48" height="64" preserveAspectRatio="xMidYMid meet" version="1.0"><defs><g/><clipPath id="32d42d7bfa"><path d="M 45 18 L 73 18 L 73 47.019531 L 45 47.019531 Z M 45 18 " clip-rule="nonzero"/></clipPath><clipPath id="cba48fb0dc"><path d="M 72 12 L 94 12 L 94 47.019531 L 72 47.019531 Z M 72 12 " clip-rule="nonzero"/></clipPath><clipPath id="ad0688870f"><path d="M 92 18 L 124 18 L 124 47.019531 L 92 47.019531 Z M 92 18 " clip-rule="nonzero"/></clipPath><clipPath id="e91f5758a2"><path d="M 122 18 L 154 18 L 154 47.019531 L 122 47.019531 Z M 122 18 " clip-rule="nonzero"/></clipPath><clipPath id="f03a49db0d"><path d="M 124 0 L 169 0 L 169 28 L 124 28 Z M 124 0 " clip-rule="nonzero"/></clipPath><clipPath id="df2f0345e4"><path d="M 123.351562 0.335938 L 168.019531 -3.292969 L 170.402344 25.996094 L 125.734375 29.628906 Z M 123.351562 0.335938 " clip-rule="nonzero"/></clipPath><clipPath id="b6dddd2938"><path d="M 123.351562 0.335938 L 168.019531 -3.292969 L 170.402344 25.996094 L 125.734375 29.628906 Z M 123.351562 0.335938 " clip-rule="nonzero"/></clipPath><clipPath id="96ad34a800"><path d="M 124 1 L 168 1 L 168 27 L 124 27 Z M 124 1 " clip-rule="nonzero"/></clipPath><clipPath id="02277ed986"><path d="M 123.351562 0.335938 L 168.019531 -3.292969 L 170.402344 25.996094 L 125.734375 29.628906 Z M 123.351562 0.335938 " clip-rule="nonzero"/></clipPath><clipPath id="817a8349c0"><path d="M 123.351562 0.335938 L 168.019531 -3.292969 L 170.402344 25.996094 L 125.734375 29.628906 Z M 123.351562 0.335938 " clip-rule="nonzero"/></clipPath><clipPath id="d270a98934"><path d="M 126 8 L 132 8 L 132 14 L 126 14 Z M 126 8 " clip-rule="nonzero"/></clipPath><clipPath id="f0f20d2eaa"><path d="M 123.351562 0.335938 L 168.019531 -3.292969 L 170.402344 25.996094 L 125.734375 29.628906 Z M 123.351562 0.335938 " clip-rule="nonzero"/></clipPath><clipPath id="feba56dc3d"><path d="M 123.351562 0.335938 L 168.019531 -3.292969 L 170.402344 25.996094 L 125.734375 29.628906 Z M 123.351562 0.335938 " clip-rule="nonzero"/></clipPath><clipPath id="9b12e0a6a3"><path d="M 143 7 L 154 7 L 154 10 L 143 10 Z M 143 7 " clip-rule="nonzero"/></clipPath><clipPath id="f3eaceb753"><path d="M 123.351562 0.335938 L 168.019531 -3.292969 L 170.402344 25.996094 L 125.734375 29.628906 Z M 123.351562 0.335938 " clip-rule="nonzero"/></clipPath><clipPath id="895d1980e6"><path d="M 123.351562 0.335938 L 168.019531 -3.292969 L 170.402344 25.996094 L 125.734375 29.628906 Z M 123.351562 0.335938 " clip-rule="nonzero"/></clipPath><clipPath id="23b498150e"><path d="M 137 11 L 163 11 L 163 27 L 137 27 Z M 137 11 " clip-rule="nonzero"/></clipPath><clipPath id="79c69186b9"><path d="M 123.351562 0.335938 L 168.019531 -3.292969 L 170.402344 25.996094 L 125.734375 29.628906 Z M 123.351562 0.335938 " clip-rule="nonzero"/></clipPath><clipPath id="6b5c13a1e6"><path d="M 123.351562 0.335938 L 168.019531 -3.292969 L 170.402344 25.996094 L 125.734375 29.628906 Z M 123.351562 0.335938 " clip-rule="nonzero"/></clipPath><clipPath id="77377a0950"><path d="M 139 4 L 148 4 L 148 10 L 139 10 Z M 139 4 " clip-rule="nonzero"/></clipPath><clipPath id="58c6bcea46"><path d="M 123.351562 0.335938 L 168.019531 -3.292969 L 170.402344 25.996094 L 125.734375 29.628906 Z M 123.351562 0.335938 " clip-rule="nonzero"/></clipPath><clipPath id="52bc6de99f"><path d="M 123.351562 0.335938 L 168.019531 -3.292969 L 170.402344 25.996094 L 125.734375 29.628906 Z M 123.351562 0.335938 " clip-rule="nonzero"/></clipPath><clipPath id="c73cfeb785"><path d="M 152 17 L 155 17 L 155 22 L 152 22 Z M 152 17 " clip-rule="nonzero"/></clipPath><clipPath id="62e9558b92"><path d="M 123.351562 0.335938 L 168.019531 -3.292969 L 170.402344 25.996094 L 125.734375 29.628906 Z M 123.351562 0.335938 " clip-rule="nonzero"/></clipPath><clipPath id="48561db9c7"><path d="M 123.351562 0.335938 L 168.019531 -3.292969 L 170.402344 25.996094 L 125.734375 29.628906 Z M 123.351562 0.335938 " clip-rule="nonzero"/></clipPath><clipPath id="9532fbf9ba"><path d="M 144 13 L 161 13 L 161 19 L 144 19 Z M 144 13 " clip-rule="nonzero"/></clipPath><clipPath id="229657598f"><path d="M 123.351562 0.335938 L 168.019531 -3.292969 L 170.402344 25.996094 L 125.734375 29.628906 Z M 123.351562 0.335938 " clip-rule="nonzero"/></clipPath><clipPath id="c58b5cfe0a"><path d="M 123.351562 0.335938 L 168.019531 -3.292969 L 170.402344 25.996094 L 125.734375 29.628906 Z M 123.351562 0.335938 " clip-rule="nonzero"/></clipPath><clipPath id="6f506d0a58"><path d="M 137 13 L 148 13 L 148 17 L 137 17 Z M 137 13 " clip-rule="nonzero"/></clipPath><clipPath id="acbb0c3526"><path d="M 123.351562 0.335938 L 168.019531 -3.292969 L 170.402344 25.996094 L 125.734375 29.628906 Z M 123.351562 0.335938 " clip-rule="nonzero"/></clipPath><clipPath id="1bd76cf667"><path d="M 123.351562 0.335938 L 168.019531 -3.292969 L 170.402344 25.996094 L 125.734375 29.628906 Z M 123.351562 0.335938 " clip-rule="nonzero"/></clipPath><clipPath id="be45e49c09"><path d="M 130 10 L 132 10 L 132 15 L 130 15 Z M 130 10 " clip-rule="nonzero"/></clipPath><clipPath id="11efbf4254"><path d="M 123.351562 0.335938 L 168.019531 -3.292969 L 170.402344 25.996094 L 125.734375 29.628906 Z M 123.351562 0.335938 " clip-rule="nonzero"/></clipPath><clipPath id="c46a4e55fb"><path d="M 123.351562 0.335938 L 168.019531 -3.292969 L 170.402344 25.996094 L 125.734375 29.628906 Z M 123.351562 0.335938 " clip-rule="nonzero"/></clipPath></defs><g fill="#1b2123" fill-opacity="1"><g transform="translate(-1.962795, 46.624409)"><g><path d="M 20.078125 -36.421875 C 23.304688 -36.421875 26.109375 -35.882812 28.484375 -34.8125 C 30.859375 -33.738281 32.6875 -32.210938 33.96875 -30.234375 C 35.257812 -28.253906 35.90625 -25.910156 35.90625 -23.203125 C 35.90625 -20.535156 35.257812 -18.203125 33.96875 -16.203125 C 32.6875 -14.210938 30.859375 -12.6875 28.484375 -11.625 C 26.109375 -10.570312 23.304688 -10.046875 20.078125 -10.046875 L 12.75 -10.046875 L 12.75 0 L 4.3125 0 L 4.3125 -36.421875 Z M 19.609375 -16.90625 C 22.148438 -16.90625 24.078125 -17.453125 25.390625 -18.546875 C 26.710938 -19.640625 27.375 -21.191406 27.375 -23.203125 C 27.375 -25.253906 26.710938 -26.820312 25.390625 -27.90625 C 24.078125 -29 22.148438 -29.546875 19.609375 -29.546875 L 12.75 -29.546875 L 12.75 -16.90625 Z M 19.609375 -16.90625 "/></g></g></g><g fill="#1b2123" fill-opacity="1"><g transform="translate(32.173116, 46.624409)"><g><path d="M 3.75 -38.609375 L 11.859375 -38.609375 L 11.859375 0 L 3.75 0 Z M 3.75 -38.609375 "/></g></g></g><g clip-path="url(#32d42d7bfa)"><g fill="#1b2123" fill-opacity="1"><g transform="translate(43.881066, 46.624409)"><g><path d="M 15.03125 -28.40625 C 19.375 -28.40625 22.707031 -27.375 25.03125 -25.3125 C 27.351562 -23.25 28.515625 -20.132812 28.515625 -15.96875 L 28.515625 0 L 20.921875 0 L 20.921875 -3.484375 C 19.390625 -0.878906 16.546875 0.421875 12.390625 0.421875 C 10.234375 0.421875 8.363281 0.0546875 6.78125 -0.671875 C 5.207031 -1.398438 4.003906 -2.40625 3.171875 -3.6875 C 2.335938 -4.976562 1.921875 -6.4375 1.921875 -8.0625 C 1.921875 -10.664062 2.898438 -12.710938 4.859375 -14.203125 C 6.828125 -15.691406 9.851562 -16.4375 13.9375 -16.4375 L 20.390625 -16.4375 C 20.390625 -18.207031 19.851562 -19.566406 18.78125 -20.515625 C 17.707031 -21.472656 16.09375 -21.953125 13.9375 -21.953125 C 12.445312 -21.953125 10.984375 -21.71875 9.546875 -21.25 C 8.109375 -20.78125 6.882812 -20.148438 5.875 -19.359375 L 2.96875 -25.03125 C 4.488281 -26.101562 6.316406 -26.929688 8.453125 -27.515625 C 10.585938 -28.109375 12.78125 -28.40625 15.03125 -28.40625 Z M 14.40625 -5.046875 C 15.800781 -5.046875 17.035156 -5.363281 18.109375 -6 C 19.179688 -6.644531 19.941406 -7.59375 20.390625 -8.84375 L 20.390625 -11.703125 L 14.828125 -11.703125 C 11.492188 -11.703125 9.828125 -10.609375 9.828125 -8.421875 C 9.828125 -7.390625 10.234375 -6.566406 11.046875 -5.953125 C 11.867188 -5.347656 12.988281 -5.046875 14.40625 -5.046875 Z M 14.40625 -5.046875 "/></g></g></g></g><g clip-path="url(#cba48fb0dc)"><g fill="#1b2123" fill-opacity="1"><g transform="translate(72.032723, 46.624409)"><g><path d="M 21.796875 -1.359375 C 21.003906 -0.765625 20.023438 -0.316406 18.859375 -0.015625 C 17.703125 0.273438 16.476562 0.421875 15.1875 0.421875 C 11.863281 0.421875 9.289062 -0.425781 7.46875 -2.125 C 5.644531 -3.832031 4.734375 -6.332031 4.734375 -9.625 L 4.734375 -21.125 L 0.421875 -21.125 L 0.421875 -27.375 L 4.734375 -27.375 L 4.734375 -34.1875 L 12.859375 -34.1875 L 12.859375 -27.375 L 19.828125 -27.375 L 19.828125 -21.125 L 12.859375 -21.125 L 12.859375 -9.734375 C 12.859375 -8.546875 13.160156 -7.628906 13.765625 -6.984375 C 14.367188 -6.347656 15.226562 -6.03125 16.34375 -6.03125 C 17.625 -6.03125 18.710938 -6.378906 19.609375 -7.078125 Z M 21.796875 -1.359375 "/></g></g></g></g><g clip-path="url(#ad0688870f)"><g fill="#1b2123" fill-opacity="1"><g transform="translate(90.71364, 46.624409)"><g><path d="M 17.0625 0.421875 C 14.113281 0.421875 11.46875 -0.191406 9.125 -1.421875 C 6.789062 -2.660156 4.960938 -4.367188 3.640625 -6.546875 C 2.328125 -8.734375 1.671875 -11.21875 1.671875 -14 C 1.671875 -16.769531 2.328125 -19.25 3.640625 -21.4375 C 4.960938 -23.625 6.789062 -25.332031 9.125 -26.5625 C 11.46875 -27.789062 14.113281 -28.40625 17.0625 -28.40625 C 20.007812 -28.40625 22.644531 -27.789062 24.96875 -26.5625 C 27.300781 -25.332031 29.125 -23.625 30.4375 -21.4375 C 31.757812 -19.25 32.421875 -16.769531 32.421875 -14 C 32.421875 -11.21875 31.757812 -8.734375 30.4375 -6.546875 C 29.125 -4.367188 27.300781 -2.660156 24.96875 -1.421875 C 22.644531 -0.191406 20.007812 0.421875 17.0625 0.421875 Z M 17.0625 -6.25 C 19.144531 -6.25 20.851562 -6.945312 22.1875 -8.34375 C 23.519531 -9.75 24.1875 -11.632812 24.1875 -14 C 24.1875 -16.351562 23.519531 -18.234375 22.1875 -19.640625 C 20.851562 -21.046875 19.144531 -21.75 17.0625 -21.75 C 14.976562 -21.75 13.257812 -21.046875 11.90625 -19.640625 C 10.5625 -18.234375 9.890625 -16.351562 9.890625 -14 C 9.890625 -11.632812 10.5625 -9.75 11.90625 -8.34375 C 13.257812 -6.945312 14.976562 -6.25 17.0625 -6.25 Z M 17.0625 -6.25 "/></g></g></g></g><g clip-path="url(#e91f5758a2)"><g fill="#1b2123" fill-opacity="1"><g transform="translate(120.842702, 46.624409)"><g><path d="M 17.0625 0.421875 C 14.113281 0.421875 11.46875 -0.191406 9.125 -1.421875 C 6.789062 -2.660156 4.960938 -4.367188 3.640625 -6.546875 C 2.328125 -8.734375 1.671875 -11.21875 1.671875 -14 C 1.671875 -16.769531 2.328125 -19.25 3.640625 -21.4375 C 4.960938 -23.625 6.789062 -25.332031 9.125 -26.5625 C 11.46875 -27.789062 14.113281 -28.40625 17.0625 -28.40625 C 20.007812 -28.40625 22.644531 -27.789062 24.96875 -26.5625 C 27.300781 -25.332031 29.125 -23.625 30.4375 -21.4375 C 31.757812 -19.25 32.421875 -16.769531 32.421875 -14 C 32.421875 -11.21875 31.757812 -8.734375 30.4375 -6.546875 C 29.125 -4.367188 27.300781 -2.660156 24.96875 -1.421875 C 22.644531 -0.191406 20.007812 0.421875 17.0625 0.421875 Z M 17.0625 -6.25 C 19.144531 -6.25 20.851562 -6.945312 22.1875 -8.34375 C 23.519531 -9.75 24.1875 -11.632812 24.1875 -14 C 24.1875 -16.351562 23.519531 -18.234375 22.1875 -19.640625 C 20.851562 -21.046875 19.144531 -21.75 17.0625 -21.75 C 14.976562 -21.75 13.257812 -21.046875 11.90625 -19.640625 C 10.5625 -18.234375 9.890625 -16.351562 9.890625 -14 C 9.890625 -11.632812 10.5625 -9.75 11.90625 -8.34375 C 13.257812 -6.945312 14.976562 -6.25 17.0625 -6.25 Z M 17.0625 -6.25 "/></g></g></g></g><g clip-path="url(#f03a49db0d)"><g clip-path="url(#df2f0345e4)"><g clip-path="url(#b6dddd2938)"><path fill="#f4f4f4" d="M 151.375 27.003906 C 146.941406 24.542969 141.515625 22.703125 136.097656 21.824219 C 133.402344 21.386719 130.777344 21.191406 128.296875 21.25 L 127.027344 21.28125 L 130.628906 14.339844 C 129.011719 13.824219 125.792969 12.425781 124.546875 9.195312 C 123.945312 7.628906 123.914062 6.292969 124.460938 5.105469 C 125.175781 3.546875 127.992188 -0.0273438 133.355469 1.082031 C 137.457031 1.75 141 5.160156 141.714844 5.886719 C 142.082031 6.015625 142.449219 6.113281 142.828125 6.171875 C 144.34375 6.417969 145.851562 6.085938 147.601562 5.695312 C 150.097656 5.144531 153.203125 4.457031 157.621094 5.171875 C 158.164062 5.261719 158.722656 5.371094 159.285156 5.5 C 164.179688 6.609375 167.019531 8.355469 167.957031 10.832031 C 168.375 11.929688 168.640625 15.429688 166.363281 18.566406 C 165.183594 20.261719 163.152344 21.074219 160.804688 21.503906 C 159.699219 21.707031 157.859375 21.863281 155.375 21.460938 C 154.699219 21.351562 154.121094 21.222656 153.695312 21.117188 L 152.242188 27.484375 Z M 151.375 27.003906 " fill-opacity="1" fill-rule="nonzero"/></g></g></g><g clip-path="url(#96ad34a800)"><g clip-path="url(#02277ed986)"><g clip-path="url(#817a8349c0)"><path fill="#1b2123" d="M 165.5 17.863281 C 164.222656 19.707031 162.273438 20.527344 160.300781 20.820312 C 156.765625 21.34375 153.144531 20.175781 153.144531 20.175781 L 151.738281 26.339844 C 150.023438 25.386719 148.167969 24.527344 146.222656 23.78125 C 140.550781 21.597656 134.132812 20.355469 128.28125 20.492188 L 131.730469 13.851562 C 131.730469 13.851562 126.773438 12.882812 125.246094 8.917969 C 124.273438 6.398438 125.449219 3.535156 129.507812 1.976562 C 135.007812 0.0546875 141.296875 6.542969 141.296875 6.542969 C 146.164062 8.390625 149.652344 4.089844 159.117188 6.238281 C 168.550781 8.378906 169.070312 12.71875 165.5 17.863281 Z M 165.5 17.863281 " fill-opacity="1" fill-rule="nonzero"/></g></g></g><g clip-path="url(#d270a98934)"><g clip-path="url(#f0f20d2eaa)"><g clip-path="url(#feba56dc3d)"><path fill="#1b2123" d="M 131.34375 13.5625 C 131.34375 13.5625 128.238281 12.117188 127.261719 10.585938 C 126.257812 9.015625 126.464844 7.917969 126.714844 8.179688 C 126.960938 8.441406 127.621094 10.164062 128.761719 10.277344 C 129.902344 10.386719 129.066406 8.414062 129.914062 8.996094 C 130.761719 9.574219 131.421875 10.855469 131.625 11.84375 C 131.824219 12.832031 131.34375 13.5625 131.34375 13.5625 Z M 131.34375 13.5625 " fill-opacity="1" fill-rule="nonzero"/></g></g></g><g clip-path="url(#9b12e0a6a3)"><g clip-path="url(#f3eaceb753)"><g clip-path="url(#895d1980e6)"><path fill="#1b2123" d="M 143.953125 7.6875 C 143.953125 7.6875 146.25 8.378906 149.152344 7.777344 C 152.054688 7.171875 154.109375 7.121094 153.976562 7.945312 C 153.839844 8.769531 152.613281 9.800781 149.453125 9.667969 C 146.289062 9.539062 143.953125 7.6875 143.953125 7.6875 Z M 143.953125 7.6875 " fill-opacity="1" fill-rule="nonzero"/></g></g></g><g clip-path="url(#23b498150e)"><g clip-path="url(#79c69186b9)"><g clip-path="url(#6b5c13a1e6)"><path fill="#1b2123" d="M 162.617188 19.472656 C 162.5625 19.503906 161.207031 20.320312 160.300781 20.820312 C 156.761719 21.34375 153.144531 20.175781 153.144531 20.175781 L 151.738281 26.339844 C 150.023438 25.386719 148.164062 24.527344 146.222656 23.78125 C 146.871094 23.632812 147.515625 23.21875 147.972656 22.304688 C 149.324219 19.589844 149.421875 17.742188 149.421875 17.742188 C 149.421875 17.742188 145.578125 18.773438 143.058594 17.949219 C 140.558594 17.132812 137.984375 13.042969 137.945312 12.976562 C 137.988281 12.996094 140.347656 13.988281 141.84375 14.128906 C 143.351562 14.269531 143.351562 14.269531 143.351562 14.269531 C 142.800781 12.511719 142.339844 10.847656 143.675781 11.011719 C 143.675781 11.011719 146.484375 15.710938 153.429688 15.703125 C 160.371094 15.691406 161.214844 13.035156 162.128906 14.941406 C 163.042969 16.851562 158.390625 19.097656 159.632812 19.609375 C 160.855469 20.113281 162.554688 19.496094 162.617188 19.472656 Z M 162.617188 19.472656 " fill-opacity="1" fill-rule="nonzero"/></g></g></g><g clip-path="url(#77377a0950)"><g clip-path="url(#58c6bcea46)"><g clip-path="url(#52bc6de99f)"><path fill="#f4f4f4" d="M 139.398438 4.765625 C 139.398438 4.765625 141.363281 7.058594 143.535156 8.355469 C 145.703125 9.652344 147.941406 9.28125 147.941406 9.28125 C 147.941406 9.28125 145.46875 8.5625 143.953125 7.6875 C 142.441406 6.8125 142.171875 6.558594 142.171875 6.558594 Z M 139.398438 4.765625 " fill-opacity="1" fill-rule="nonzero"/></g></g></g><g clip-path="url(#c73cfeb785)"><g clip-path="url(#62e9558b92)"><g clip-path="url(#48561db9c7)"><path fill="#f4f4f4" d="M 154.046875 17.878906 C 153.703125 18.226562 153.171875 20.148438 152.820312 21.609375 L 153.695312 21.117188 C 153.910156 20.058594 154.140625 19.140625 154.378906 18.34375 Z M 154.046875 17.878906 " fill-opacity="1" fill-rule="nonzero"/></g></g></g><g clip-path="url(#9532fbf9ba)"><g clip-path="url(#229657598f)"><g clip-path="url(#c58b5cfe0a)"><path fill="#f4f4f4" d="M 160.359375 16.667969 C 160.359375 16.667969 157.980469 18.707031 152.570312 17.480469 C 147.164062 16.257812 144.433594 13.734375 144.433594 13.734375 C 144.433594 13.734375 146.714844 16.800781 151.601562 18.257812 C 154.691406 19.105469 153.875 18.878906 156.015625 18.796875 C 158.152344 18.710938 160.359375 16.667969 160.359375 16.667969 Z M 160.359375 16.667969 " fill-opacity="1" fill-rule="nonzero"/></g></g></g><g clip-path="url(#6f506d0a58)"><g clip-path="url(#acbb0c3526)"><g clip-path="url(#1bd76cf667)"><path fill="#f4f4f4" d="M 146.238281 15.25 C 143.722656 16.117188 139.824219 15.335938 137.273438 13.1875 C 137.273438 13.1875 137.742188 14.460938 140.648438 15.789062 C 143.554688 17.121094 147.523438 16.054688 147.523438 16.054688 Z M 146.238281 15.25 " fill-opacity="1" fill-rule="nonzero"/></g></g></g><g clip-path="url(#be45e49c09)"><g clip-path="url(#11efbf4254)"><g clip-path="url(#c46a4e55fb)"><path fill="#f4f4f4" d="M 131.207031 14.671875 C 131.355469 14.507812 131.820312 13.953125 131.929688 13.277344 C 132.039062 12.601562 130.59375 10.410156 130.59375 10.410156 C 130.59375 10.410156 131.179688 12.148438 131.191406 12.84375 C 131.203125 13.539062 130.632812 14.339844 130.632812 14.339844 Z M 131.207031 14.671875 " fill-opacity="1" fill-rule="nonzero"/></g></g></g></svg>